<?xml version="1.0" encoding="UTF-8" standalone="no"?>
<svg
   xmlns:dc="http://purl.org/dc/elements/1.1/"
   xmlns:cc="http://creativecommons.org/ns#"
   xmlns:rdf="http://www.w3.org/1999/02/22-rdf-syntax-ns#"
   xmlns:svg="http://www.w3.org/2000/svg"
   xmlns="http://www.w3.org/2000/svg"
   xmlns:sodipodi="http://sodipodi.sourceforge.net/DTD/sodipodi-0.dtd"
   xmlns:inkscape="http://www.inkscape.org/namespaces/inkscape"
   inkscape:version="1.1-dev (ddb55ca, 2020-02-02)"
   sodipodi:docname="analog.svg"
   id="svg38"
   preserveAspectRatio="xMidYMid meet"
   viewBox="0 0 1280.000000 1280.000000"
   height="240.000000pt"
   width="240.000000pt"
   version="1.0">
  <metadata
     id="metadata44">
    <rdf:RDF>
      <cc:Work
         rdf:about="">
        <dc:format>image/svg+xml</dc:format>
        <dc:type
           rdf:resource="http://purl.org/dc/dcmitype/StillImage" />
        <dc:title></dc:title>
      </cc:Work>
    </rdf:RDF>
  </metadata>
  <defs
     id="defs42" />
  <sodipodi:namedview
     inkscape:current-layer="svg38"
     inkscape:window-maximized="0"
     inkscape:window-y="0"
     inkscape:window-x="0"
     inkscape:cy="853.33333"
     inkscape:cx="853.33333"
     inkscape:zoom="0.40398536"
     inkscape:snap-grids="false"
     showgrid="false"
     id="namedview40"
     inkscape:window-height="900"
     inkscape:window-width="1440"
     inkscape:pageshadow="2"
     inkscape:pageopacity="0"
     guidetolerance="10"
     gridtolerance="10"
     objecttolerance="10"
     borderopacity="1"
     bordercolor="#666666"
     pagecolor="#ffffff" />
  <g
     id="g36"
     stroke="none"
     fill="#000000"
     transform="translate(0.000000,1280.000000) scale(0.100000,-0.100000)">
    <path
       style="fill:#ffffff"
       id="path10"
       d="M6338 12777 c-76 -45 -73 -21 -76 -512 -2 -286 0 -452 7 -476 6 -19 22 -46 37 -60 22 -21 35 -24 94 -24 54 0 73 4 90 20 49 43 50 55 50 522 0 496 2 484 -78 529 -52 29 -76 29 -124 1z" />
    <path
       style="fill:#ffffff"
       id="path12"
       d="M3236 11950 c-42 -13 -85 -58 -97 -103 -9 -35 -7 -46 25 -110 19 -40 117 -218 218 -397 195 -344 215 -370 282 -370 71 0 146 71 146 137 0 19 -9 51 -20 73 -46 91 -403 717 -418 734 -18 20 -73 47 -94 45 -7 0 -26 -5 -42 -9z" />
    <path
       style="fill:#ffffff"
       id="path14"
       d="M9475 11950 c-11 -4 -30 -18 -42 -31 -12 -13 -114 -195 -227 -405 -179 -331 -206 -387 -206 -425 0 -83 61 -139 150 -139 36 0 48 6 73 33 16 17 119 199 229 402 177 327 201 376 205 425 5 50 2 59 -23 89 -43 52 -108 73 -159 51z" />
    <path
       style="fill:#ffffff"
       id="path18"
       d="M952 9659 c-68 -14 -122 -100 -107 -168 3 -16 18 -40 33 -54 37 -35 779 -445 820 -453 126 -24 212 164 109 239 -27 20 -637 361 -736 412 -52 26 -82 32 -119 24z" />
    <path
       style="fill:#ffffff"
       id="path20"
       d="M11786 9663 c-40 -10 -762 -446 -793 -479 -27 -28 -33 -41 -33 -79 0 -86 55 -145 136 -145 35 0 91 30 420 226 208 124 389 235 402 247 67 62 37 184 -55 223 -33 14 -44 15 -77 7z" />
    <path
       style="fill:#ffffff"
       id="path22"
       d="M105 6533 c-35 -9 -61 -32 -83 -74 -28 -52 -28 -69 2 -121 45 -80 33 -78 529 -78 484 0 489 1 527 62 26 43 26 113 0 156 -38 61 -43 62 -522 61 -238 -1 -442 -4 -453 -6z" />
    <path
       style="fill:#ffffff"
       id="path24"
       d="M11761 6523 c-52 -27 -75 -64 -75 -123 0 -59 23 -96 75 -122 31 -16 75 -18 479 -18 504 0 491 -2 536 78 30 52 30 69 2 121 -42 79 -17 76 -528 79 -419 2 -458 1 -489 -15z" />
    <path
       style="fill:#ffffff"
       id="path26"
       d="M1285 3614 c-209 -124 -390 -235 -403 -246 -46 -44 -47 -135 0 -185 32 -36 83 -56 121 -47 45 10 766 440 805 480 27 28 32 41 32 80 0 85 -57 144 -137 144 -33 0 -100 -36 -418 -226z" />
    <path
       style="fill:#ffffff"
       id="path28"
       d="M11042 3800 c-67 -41 -92 -132 -53 -195 13 -23 109 -82 382 -237 200 -114 381 -214 403 -223 48 -20 87 -12 132 27 61 54 66 144 11 196 -24 22 -659 389 -742 428 -61 29 -90 30 -133 4z" />
    <path
       style="fill:#ffffff"
       id="path30"
       d="M9052 1843 c-68 -33 -95 -106 -64 -175 32 -73 422 -762 444 -785 92 -99 268 9 224 137 -12 36 -413 758 -439 790 -39 50 -104 63 -165 33z" />
    <path
       style="fill:#ffffff"
       id="path32"
       d="M3626 1798 c-19 -18 -137 -199 -262 -403 -213 -345 -229 -373 -229 -417 0 -42 5 -52 37 -85 33 -32 44 -37 96 -41 54 -4 62 -2 90 24 35 33 469 730 488 785 31 87 -37 169 -141 169 -38 0 -51 -6 -79 -32z" />
    <path
       style="fill:#ffffff"
       id="path34"
       d="M6311 1084 c-17 -14 -35 -42 -41 -62 -8 -25 -10 -184 -8 -482 3 -500 0 -476 79 -518 52 -28 69 -28 121 2 80 45 78 33 78 534 0 480 -1 488 -55 530 -42 33 -133 31 -174 -4z" />
    <circle
       r="450"
       transform="scale(1,-1)"
       cy="-6400.0"
       cx="6400.0"
       id="path50"
       style="fill:#ffffff;stroke-width:7.5" />
  </g>
</svg>
